<svg height="512pt" viewBox="0 0 512.001 512" width="512pt" xmlns="http://www.w3.org/2000/svg"><path d="m502 112.402344-24.5-24.492188-24.5 24.492188v276.238281l49 26.117187zm0 0" fill="#dfdce5"/><path d="m350.503906 112.402344v252.554687l53.496094 12.929688v-265.484375l-26.75-26.742188zm0 0" fill="#dfdce5"/><path d="m353.664062 162.355469-58.136718-18.054688-58.136719 18.054688-27.449219 56.140625v143.535156h171.089844l.082031-143.535156zm0 0" fill="#ef7159"/><path d="m179.980469 209.980469h152.050781v152.050781h-152.050781zm0 0" fill="#dfdce5"/><path d="m231.757812 209.980469h100.273438v152.050781h-100.273438zm0 0" fill="#a766b2"/><path d="m306.753906 365.042969c-72.25 8.636719-138.90625 35.488281-195.246094 75.828125v61.113281h390.492188v-61.113281c-56.339844-40.339844-122.996094-67.191406-195.246094-75.828125zm0 0" fill="#acd670"/><path d="m309.09375 242.972656c2.558594 0 5.117188-.972656 7.070312-2.925781l.078126-.078125c3.902343-3.902344 3.902343-10.234375 0-14.140625-3.90625-3.90625-10.238282-3.90625-14.144532 0l-.074218.074219c-3.90625 3.90625-3.90625 10.238281 0 14.144531 1.953124 1.953125 4.511718 2.925781 7.070312 2.925781zm0 0"/><path d="m210.617188 226.472656c-3.894532-3.917968-10.226563-3.9375-14.144532-.042968-3.914062 3.890624-3.9375 10.222656-.042968 14.140624l.074218.074219c1.957032 1.96875 4.523438 2.953125 7.09375 2.953125 2.550782 0 5.097656-.96875 7.050782-2.90625 3.917968-3.894531 3.9375-10.222656.042968-14.140625zm0 0"/><path d="m256.003906 199.980469c-5.519531 0-10 4.476562-10 10 0 5.523437 4.480469 10 10 10h.011719c5.523437 0 9.996094-4.476563 9.996094-10 0-5.523438-4.484375-10-10.007813-10zm0 0"/><path d="m511.996094 440.847656v-328.445312c0-2.652344-1.050782-5.195313-2.929688-7.070313l-48.996094-48.984375c-3.90625-3.902344-10.234374-3.902344-14.140624 0l-41.929688 41.914063-41.925781-41.914063c-3.90625-3.902344-10.234375-3.902344-14.140625 0l-49 48.984375s0 0-.003906.003907l-40.050782-11.554688c-.902344-.257812-1.910156-.390625-2.847656-.390625s-1.871094.132813-2.769531.390625l-112.804688 32.53125-26.5625-26.558594c-3.902343-3.902344-10.234375-3.902344-14.140625 0-3.90625 3.90625-3.90625 10.238282 0 14.140625l27.699219 27.703125-8.164063 15.507813-3.683593-16.652344c-1.195313-5.394531-6.53125-8.796875-11.925781-7.605469-5.390626 1.195313-8.796876 6.535156-7.601563 11.925782l7.121094 32.183593-41.230469 24.40625 9.890625-57.042969c.945313-5.441406-2.703125-10.617187-8.144531-11.5625-5.441406-.941406-10.617188 2.703126-11.5625 8.148438l-51.347656 296.105469c-.507813 1.207031-.7929692 2.511719-.7929692 3.859375v61.113281c0 5.523437 4.4765622 10 10.0000002 10h5.527343.007813.011719 382.441406c.039062 0 .074219.007813.113281.007813.03125 0 .058594-.007813.089844-.007813h98.207031c.019532 0 .039063.003906.058594.003906.015625 0 .03125-.003906.046875-.003906h5.484375c5.523438 0 10-4.476563 10-10v-61.113281c0-.007813-.003906-.015625-.003906-.023438zm-223.921875-34.546875c-5.5-.445312-10.335938 3.644531-10.789063 9.148438-.453125 5.503906 3.644532 10.332031 9.144532 10.785156 65.503906 5.390625 127.394531 28 180.648437 65.75h-66.675781c-45.195313-21.890625-93.761719-32.996094-144.398438-32.996094-50.632812 0-99.199218 11.105469-144.398437 32.996094h-66.664063c52.074219-36.898437 112.507813-59.375 176.421875-65.378906 5.5-.515625 9.535157-5.390625 9.019531-10.890625-.515624-5.5-5.390624-9.53125-10.890624-9.019532-72.972657 6.851563-141.644532 34.054688-199.480469 78.875v-39.523437c69.429687-48.441406 150.910156-74.015625 235.992187-74.015625 49.734375 0 98.230469 8.75 143.8125 25.6875.484375.222656.984375.40625 1.503906.550781 31.859376 11.976563 62.277344 27.960938 90.679688 47.777344v39.527344c-59.066406-45.785157-129.273438-73.125-203.925781-79.273438zm57.433593 85.683594h-179.003906c28.796875-8.636719 58.742188-12.996094 89.5-12.996094 30.761719 0 60.707032 4.359375 89.503906 12.996094zm-289.707031-255.058594 54.980469 32.226563-67.636719 40.75zm148.382813 115.105469 51.851562-51.855469 51.855469 51.855469zm166.855468 0h-29.007812v-142.050781c0-5.523438-4.476562-10-10-10h-47.527344c-5.523437 0-10 4.476562-10 10 0 5.523437 4.476563 10 10 10h37.527344v117.90625l-51.855469-51.851563 27.289063-27.289062c3.90625-3.90625 3.90625-10.238282 0-14.144532-3.90625-3.902343-10.238282-3.902343-14.144532 0l-27.285156 27.289063-26.667968-26.664063c-3.902344-3.90625-10.238282-3.90625-14.140626 0-3.90625 3.902344-3.90625 10.234376 0 14.140626l26.664063 26.664062-51.914063 51.914062v-117.964843h36.277344c5.523438 0 10-4.476563 10-10 0-5.523438-4.476562-10-10-10h-46.277344c-5.523437 0-10 4.476562-10 10v142.050781h-29.039062v-131.21875l24.539062-50.183594 90.546876-28.125 90.546874 28.125 24.539063 50.179688zm-266.574218 27.222656-55.574219-49.464844 72.050781-43.40625v75.648438c0 4.296875 2.71875 7.953125 6.523438 9.363281-7.742188 2.402344-15.410156 5.023438-23 7.859375zm-67.5625-33.359375 46.855468 41.707031c-20.550781 8.925782-40.457031 19.496094-59.578124 31.652344zm416.097656-268.335937 39 38.988281v305.394531c-24.753906-16.132812-50.859375-29.578125-78-40.222656v-265.171875zm-97.996094 0 38.996094 38.988281v42.742187l-14.492188-27.523437c-1.269531-2.40625-3.464843-4.195313-6.078124-4.949219l-52.542969-15.152344zm-206.660156 67.296875 107.726562-31.066407 107.722657 31.066407 30.207031 57.355469v172.234374c-3.144531-1.058593-6.304688-2.074218-9.476562-3.058593 3.796874-1.417969 6.503906-5.0625 6.507812-9.351563l.082031-143.53125c0-1.527344-.347656-3.03125-1.019531-4.398437l-27.449219-56.140625c-1.210937-2.476563-3.386719-4.339844-6.015625-5.15625l-97.605468-30.316406c-1.921876-.597657-4.074219-.597657-5.996094 0l-97.601563 30.316406c-2.632812.816406-4.808593 2.683594-6.019531 5.15625l-20.605469 42.140625-2.828125-12.78125zm-28.726562 106.292969-51.503907-30.1875 39.632813-23.457032zm0 0"/><path d="m256.378906 404.988281h-.375c-5.519531 0-10 4.476563-10 10 0 5.523438 4.480469 10 10 10h.375c5.523438 0 10-4.476562 10-10 0-5.523437-4.476562-10-10-10zm0 0"/><path d="m84.195312 61.335938c5.523438 0 10-4.476563 10-10v-41.335938c0-5.523438-4.476562-10-10-10-5.523437 0-10 4.476562-10 10v41.335938c0 5.523437 4.476563 10 10 10zm0 0"/><path d="m84.195312 104.195312c-5.523437 0-10 4.476563-10 10v44.199219c0 5.519531 4.476563 9.996094 10 9.996094 5.523438 0 10-4.476563 10-9.996094v-44.199219c0-5.523437-4.476562-10-10-10zm0 0"/><path d="m104.125 84.195312c0 5.523438 4.480469 10 10 10h44.265625c5.523437 0 10-4.476562 10-10 0-5.523437-4.476563-10-10-10h-44.265625c-5.519531 0-10 4.476563-10 10zm0 0"/><path d="m10 94.195312h44.199219c5.519531 0 9.996093-4.476562 9.996093-10 0-5.523437-4.476562-10-9.996093-10h-44.199219c-5.523438 0-10 4.476563-10 10 0 5.523438 4.476562 10 10 10zm0 0"/><path d="m105.378906 73.011719c2.558594 0 5.121094-.976563 7.070313-2.929688l31.28125-31.28125c3.90625-3.902343 3.90625-10.234375 0-14.140625-3.902344-3.902344-10.234375-3.902344-14.140625 0l-31.28125 31.28125c-3.90625 3.90625-3.90625 10.238282 0 14.140625 1.953125 1.953125 4.511718 2.929688 7.070312 2.929688zm0 0"/><path d="m55.914062 98.335938-31.253906 31.253906c-3.90625 3.90625-3.90625 10.238281 0 14.140625 1.953125 1.953125 4.511719 2.929687 7.070313 2.929687 2.558593 0 5.121093-.976562 7.070312-2.929687l31.253907-31.25c3.902343-3.90625 3.902343-10.238281 0-14.144531-3.90625-3.902344-10.238282-3.902344-14.140626 0zm0 0"/><path d="m56.933594 71.078125c1.953125 1.953125 4.511718 2.925781 7.070312 2.925781s5.117188-.972656 7.070313-2.925781c3.90625-3.90625 3.90625-10.238281 0-14.144531l-32.273438-32.273438c-3.902343-3.902344-10.234375-3.902344-14.140625 0-3.90625 3.90625-3.90625 10.238282 0 14.144532zm0 0"/><path d="m84.195312 73.195312c-6.0625 0-11 4.9375-11 11 0 6.066407 4.9375 11 11 11 6.066407 0 11-4.933593 11-11 0-6.0625-4.933593-11-11-11zm0 0"/></svg>