<svg height="512pt" viewBox="0 -40 512.00058 512" width="512pt" xmlns="http://www.w3.org/2000/svg"><path d="m10 219.75h54v125.460938h-54zm0 0" fill="#30995b"/><path d="m175.507812 381.25h158.125c26.167969 0 51.542969-8.988281 71.875-25.457031l86.964844-76.171875c.089844-.078125.175782-.160156.265625-.238282-9.800781-8.648437-24.320312-9.621093-35.207031-2.113281l-88.210938 74.792969c8.042969-8.203125 8.453126-24.765625-.984374-34.203125-3.75-3.75-8.835938-5.859375-14.140626-5.859375h-93.328124c-7.957032 0-15.585938-3.160156-21.210938-8.785156l-53.183594-53.433594c-9.378906-9.375-22.097656-14.644531-35.355468-14.644531h-87.117188v101.445312l41.457031 25.109375c21.125 12.792969 45.351563 19.558594 70.050781 19.558594zm0 0" fill="#f9bd95"/><path d="m422.554688 305.226562c-1.554688-2.300781-3.183594-4.550781-4.847657-6.765624-28.179687-21.148438-63.183593-33.683594-101.121093-33.683594-32.210938 0-62.300782 9.039062-87.898438 24.707031l21.289062 20.523437h83.023438c39.03125 0 44.933594 26.699219 45.828125 34.792969.726563.125 1.433594.261719 2.128906.40625zm0 0" fill="#30995b"/><path d="m232.628906 46.332031c-11.105468-3.707031-20.613281-7.53125-28.691406-11.242187.257812 21.363281 4.488281 51.917968 23.664062 73.371094 14.890626 16.648437 36.421876 25.203124 55.355469 29.589843-.109375-16.949219-3.753906-76.171875-50.328125-91.71875zm0 0" fill="#acd670"/><path d="m377.558594 46.332031c-45.863282 15.308594-50.101563 72.960938-50.320313 90.910157 18.082031-4.605469 37.992188-13.105469 52.011719-28.78125 18.730469-20.953126 23.203125-50.585938 23.636719-71.859376-7.320313 3.230469-15.726563 6.523438-25.328125 9.730469zm0 0" fill="#acd670"/><path d="m64 299.878906c-5.523438 0-10 4.480469-10 10v.128906c0 5.523438 4.476562 10 10 10s10-4.476562 10-10v-.128906c0-5.519531-4.476562-10-10-10zm0 0"/><path d="m501.140625 273.527344c-13.195313-13.195313-33.921875-15.082032-49.285156-4.488282-.273438.1875-.535157.390626-.789063.605469l-25.960937 22.011719c-31.695313-41.746094-79.9375-67.441406-132.167969-70.410156v-68.84375c20.511719-1.066406 66.628906-6.929688 93.769531-37.277344 32.226563-36.050781 26.238281-94.226562 24.671875-105.558594-.113281-2.59375-1.230468-5.144531-3.316406-7.015625-4.113281-3.683593-10.433594-3.335937-14.117188.773438-.15625.171875-16.929687 17.847656-63.886718 33.519531-21.394532 7.144531-37.503906 23.28125-47.132813 47.007812-9.625-23.726562-25.734375-39.863281-47.128906-47.007812-46.949219-15.667969-63.777344-33.40625-63.886719-33.519531-3.6875-4.109375-9.996094-4.445313-14.105468-.761719-2.042969 1.828125-3.15625 4.3125-3.308594 6.851562-1.53125 10.957032-7.722656 69.496094 24.652344 105.714844 27.152343 30.359375 73.304687 36.210938 93.792968 37.277344v68.832031c-27.488281 1.5-54.183594 9.28125-78.070312 22.800781l-1.324219-1.328124c-11.335937-11.332032-26.402344-17.574219-42.429687-17.574219h-77.117188v-5.386719c0-5.519531-4.476562-10-10-10h-54c-5.523438 0-10 4.480469-10 10v180c0 5.523438 4.476562 10 10 10h54c5.523438 0 10-4.476562 10-10v-4.667969l26.273438 15.914063c22.691406 13.742187 48.707031 21.003906 75.234374 21.003906h158.125c28.367188 0 56.128907-9.832031 78.171876-27.683594.097656-.082031.195312-.164062.292968-.25l86.917969-76.128906c7.820313-6.6875 12.542969-16.414062 12.957031-26.699219.414063-10.3125-3.535156-20.414062-10.832031-27.710937zm-164.75-217.710938c27-9.011718 45.148437-18.839844 56.527344-26.394531.449219 19.605469-2.226563 51.238281-21.121094 72.375-21.667969 24.226563-60.5625 29.453125-78.730469 30.546875.996094-20.351562 7.363282-64.523438 43.324219-76.527344zm-142.335937 45.980469c-18.890626-21.136719-21.570313-52.769531-21.121094-72.375 11.378906 7.554687 29.527344 17.382813 56.527344 26.394531 35.960937 12.003906 42.332031 56.175782 43.324218 76.527344-18.148437-1.09375-57.058594-6.3125-78.730468-30.546875zm88.695312 139.148437c50.1875 0 97.121094 23.667969 127.070312 63.667969l-25.648437 21.75c-1.539063-5.875-4.507813-11.320312-8.765625-15.574219-5.664062-5.667968-13.199219-8.789062-21.210938-8.789062h-93.328124c-5.339844 0-10.363282-2.078125-14.125-5.839844l-37.171876-37.347656c22.5-11.714844 47.566407-17.867188 73.179688-17.867188zm203.238281 71.8125c-.035156.03125-.070312.0625-.105469.09375l-86.8125 76.039063c-18.46875 14.90625-41.703124 23.109375-65.4375 23.109375h-158.125c-22.875 0-45.308593-6.261719-64.871093-18.109375l-36.636719-22.191406v-28.089844c0-5.523437-4.476562-10-10-10s-10 4.476563-10 10v46.140625h-34v-160h34v44.394531c0 5.523438 4.476562 10 10 10s10-4.476562 10-10v-29.007812h77.117188c10.683593 0 20.726562 4.160156 28.265624 11.699219l53.203126 53.449218c7.554687 7.554688 17.597656 11.714844 28.28125 11.714844h93.328124c2.671876 0 5.179688 1.039062 7.070313 2.929688 4.585937 4.582031 4.953125 12.136718 2.976563 16.914062-.507813 1.222656-1.089844 2.148438-1.699219 2.855469 0 0-2.050781 2.257812-5.011719 2.257812h-132.78125c-6.910156 0-13.625-1.992187-19.417969-5.757812l-32.214843-20.953125c-4.628907-3.015625-10.824219-1.707032-13.835938 2.921875-3.015625 4.625-1.707031 10.820312 2.921875 13.835937l32.226563 20.960938c9.046874 5.882812 19.53125 8.992187 30.320312 8.992187h132.78125c7.277344 0 13.777344-2.746093 18.691406-7.636719l87.355469-74.070312c7.375-4.832031 17.15625-3.847656 23.417969 2.417969 3.410156 3.410156 5.183594 7.945312 4.988281 12.765625-.191406 4.824218-2.320313 9.199218-5.996094 12.324218zm0 0"/></svg>