<svg height="511pt" viewBox="0 -32 511.9989 511" width="511pt" xmlns="http://www.w3.org/2000/svg"><path d="m327.820312 221.96875c-23.601562 23.605469-108.09375 145.046875-133.425781 207.421875 62.375-25.332031 183.820313-109.824219 207.421875-133.425781 24.675782-24.675782 29.9375-61.113282 15.332032-89.328125-28.214844-14.605469-64.652344-9.34375-89.328126 15.332031zm0 0" fill="#ef7159"/><path d="m411.910156 70.945312c-14.488281-16.992187-36.039062-27.777343-60.121094-27.777343-30.71875 0-57.324218 17.539062-70.390624 43.144531 30.035156 6.089844 53.863281 29.222656 61 58.863281 5.261718 6.167969 9.597656 13.144531 12.777343 20.734375 33.917969-8.875 58.949219-39.710937 58.949219-76.410156 0-6.394531-.78125-12.601562-2.214844-18.554688zm0 0" fill="#30995b"/><path d="m256.234375 85.300781c.667969-12.757812 4.382813-24.703125 10.398437-35.15625-3.039062-5.277343-6.675781-10.171875-10.808593-14.59375-3.496094-.472656-7.066407-.71875-10.691407-.71875-43.628906 0-79 35.371094-79 79 0 13.683594 3.484376 26.542969 9.609376 37.757813 3.90625.441406 7.753906 1.125 11.523437 2.058594 4.5625-35.792969 33.074219-64.097657 68.96875-68.347657zm0 0" fill="#e27f4d"/><path d="m283.613281 116.0625c-32.464843 0-60.328125 19.589844-72.472656 47.585938 5.148437 3.1875 9.980469 6.976562 14.394531 11.390624 9.542969 9.542969 16.1875 21.015626 20.039063 33.492188 7.539062 8.121094 13.128906 17.496094 16.777343 27.636719 15.125-20.957031 27.996094-37.269531 35.195313-44.46875 13.265625-13.265625 29.929687-20.917969 46.886719-22.898438.105468-1.679687.179687-3.367187.179687-5.070312 0-7.855469-1.164062-15.4375-3.296875-22.597657-14.417968-15.421874-34.929687-25.070312-57.703125-25.070312zm0 0" fill="#ffc943"/><path d="m226.425781 175.960938c-30.902343-3.613282-65.3125 8.109374-91.46875 34.269531-41.550781 41.546875-46.679687 103.910156-11.765625 139.976562 20.613282 2.414063 42.789063-1.988281 63.035156-12.957031 4.316407-1.953125 8.542969-3.847656 12.945313-5.175781 14.953125-25.066407 32.015625-51.25 47.957031-74.335938 6.597656-29.964843-.058594-60.464843-20.703125-81.777343zm0 0" fill="#a766b2"/><path d="m342.011719 218.421875c-3.914063-3.894531-10.246094-3.878906-14.140625.039063-3.894532 3.914062-3.878906 10.246093.035156 14.140624l.09375.09375c1.949219 1.941407 4.5 2.910157 7.050781 2.910157 2.570313 0 5.136719-.984375 7.089844-2.949219 3.894531-3.917969 3.878906-10.246094-.035156-14.140625zm0 0"/><path d="m511.6875 130.652344c-1.367188-5.351563-6.8125-8.585938-12.164062-7.21875-16.683594 4.257812-32.75 10.4375-47.886719 18.363281 7.925781-15.074219 14.105469-31.0625 18.351562-47.648437 1.371094-5.351563-1.855469-10.800782-7.207031-12.167969-5.351562-1.367188-10.796875 1.855469-12.167969 7.207031-4.25 16.601562-10.648437 32.53125-18.941406 47.4375.4375-1.964844.859375-3.929688 1.246094-5.90625 1.058593-5.421875-2.472657-10.675781-7.894531-11.734375-2.207032-.433594-4.382813-.09375-6.261719.816406 3.460937-9.5 5.363281-19.710937 5.363281-30.300781 0-49.074219-39.925781-89-89.003906-89-27.351563 0-52.011719 12.480469-68.40625 32.152344-16.65625-20.355469-41.390625-32.152344-68.582032-32.152344-49.074218 0-89 39.925781-89 89 0 21.3125 7.371094 41.324219 20.648438 57.089844-15.757812 5.042968-30.695312 13.378906-43.894531 24.5625-10.902344-21.449219 7.921875-54.46875 8.175781-54.910156 2.773438-4.765626 1.167969-10.882813-3.597656-13.667969-4.765625-2.785157-10.890625-1.179688-13.679688 3.589843-.785156 1.347657-12.222656 21.28125-14.03125 43.722657l-29.472656-29.472657c-3.90625-3.90625-10.238281-3.90625-14.140625 0-3.90625 3.90625-3.90625 10.238282 0 14.140626l29.46875 29.472656c-22.417969 1.808594-42.316406 13.234375-43.660156 14.023437-4.765625 2.785157-6.363281 8.894531-3.585938 13.660157 1.855469 3.1875 5.207031 4.964843 8.652344 4.964843 1.707031 0 3.433594-.4375 5.015625-1.351562.367188-.214844 33.398438-19.082031 54.855469-8.160157-32.066407 37.917969-38.882813 88.519532-18.636719 125.984376.132812.269531.28125.53125.4375.789062 3.988281 7.207031 8.980469 13.917969 15.007812 19.945312 10.140626 10.140626 22.347657 17.464844 35.710938 21.90625.546875.226563 1.109375.394532 1.683594.523438 9.640625 3.007812 19.847656 4.554688 30.308594 4.554688 13.5625 0 27.527343-2.570313 41.171874-7.757813-6.992187 12.710937-12.796874 24.195313-17.222656 34.089844-13.011718 29.097656-14.824218 45.253906-6.050781 54.023437 3.589844 3.59375 8.421875 5.410156 14.871094 5.410156 9.300781 0 21.972656-3.777343 39.152343-11.460937 19.976563-8.9375 46.402344-23.484375 76.421876-42.078125 51.394531-31.832031 109.164062-73.070312 126.148437-90.054688 30.078125-30.078124 34.457031-75.917968 12.570313-108.707031 14.414062-6.433593 29.539062-11.214843 45.105468-14.25 5.417969-1.058593 8.957032-6.308593 7.898438-11.730469-1.058594-5.417968-6.304688-8.957031-11.730469-7.898437-1.925781.375-3.84375.785156-5.753906 1.207031 14.910156-8.234375 30.855469-14.601562 47.488281-18.84375 5.351562-1.367187 8.582031-6.8125 7.21875-12.164062zm-112.6875 41.277344c-4.839844-3.210938-9.949219-5.859376-15.261719-7.933594 11.335938-7.425782 20.835938-17.351563 27.773438-28.941406-3.011719 12.671874-7.199219 25.015624-12.511719 36.875zm-139.792969 51.542968c-2.386719-21.082031-11.460937-40.367187-26.601562-55.503906-9.652344-9.652344-21.160157-16.84375-33.914063-21.367188 7.519532-30.066406 34.984375-51.871093 66.921875-51.871093 36.925781 0 67.164063 29.15625 68.914063 65.65625-16.039063 3.535156-31.433594 11.625-44.050782 24.238281-7.046874 7.050781-18.273437 21.125-31.269531 38.847656zm75.914063-202.972656c38.050781 0 69.003906 30.953125 69.003906 69 0 31.039062-20.832031 57.910156-49.871094 66.28125-3.976562-44.679688-41.097656-79.964844-86.539062-81.023438 6.785156-31.140624 34.609375-54.257812 67.40625-54.257812zm-205.988282 69c0-38.046875 30.953126-69 69-69 23.285157 0 44.234376 11.140625 56.980469 30.046875-3.957031 8.09375-6.707031 16.882813-8.046875 26.148437-32.996094 7-59.644531 32.285157-67.816406 65.230469-7.328125-.992187-14.917969-1.210937-22.691406-.613281-1.199219.09375-2.394532.210938-3.59375.339844-15.1875-12.992188-23.832032-31.796875-23.832032-52.152344zm55.109376 237.65625c-.675782.3125-1.382813.636719-2.136719.980469-.21875.097656-.433594.203125-.644531.320312-18.007813 9.753907-37.230469 13.679688-55.011719 12.027344l9.375-9.375c3.902343-3.90625 3.90625-10.238281 0-14.140625-3.90625-3.90625-10.238281-3.90625-14.144531 0l-17.964844 17.960938c-8.507813-3.519532-16.273438-8.585938-22.878906-15.191407-2.976563-2.972656-5.628907-6.167969-7.96875-9.539062l60.785156-60.78125c3.902344-3.90625 3.902344-10.238281 0-14.144531-3.90625-3.90625-10.238282-3.90625-14.144532 0l-55.957031 55.960937c-10.042969-31.164063-.152343-69.972656 28.140625-98.265625 33.5625-33.5625 81.921875-41.226562 114.757813-20.441406l-14.601563 14.605468c-3.90625 3.90625-3.90625 10.238282 0 14.144532 1.953125 1.953125 4.511719 2.925781 7.070313 2.925781 2.558593 0 5.121093-.972656 7.070312-2.925781l15.714844-15.714844c16.023437 18.132812 21.71875 42.144531 16.046875 68.171875-5.148438 7.484375-10.367188 15.214844-15.539062 23.039063-.054688.082031-.109376.164062-.164063.246093-7.421875 11.234375-14.746094 22.640625-21.628906 33.753907-2.71875 4.394531-5.34375 8.703124-7.886719 12.9375-3.09375 1.0625-5.546875 2.183593-8.289062 3.445312zm218.574218-47.929688-36.277344-36.28125c-3.90625-3.902343-10.238281-3.902343-14.144531 0-3.90625 3.90625-3.90625 10.238282 0 14.144532l36.851563 36.851562c-18.65625 16.199219-63.789063 48.792969-111.386719 78.625-12.746094 7.988282-24.878906 15.273438-36.167969 21.726563l-21.855468-21.855469c-3.90625-3.902344-10.238282-3.902344-14.144532 0-3.902344 3.90625-3.902344 10.238281 0 14.144531l17.789063 17.789063c-6.640625 3.542968-12.878907 6.707031-18.613281 9.4375-24.847657 11.824218-34.738282 12.9375-37.984376 12.824218-.113281-3.242187.996094-13.140624 12.824219-37.988281 9.304688-19.558593 23.566407-44.796875 41.238281-72.992187 3.6875-5.882813 7.417969-11.726563 11.15625-17.488282l18.671876 18.671876c1.953124 1.953124 4.511718 2.929687 7.074218 2.929687 2.558594 0 5.117188-.976563 7.070313-2.929687 3.902343-3.90625 3.902343-10.238282 0-14.144532l-21.589844-21.585937c26.152344-39.109375 50.800781-71.847657 61.289063-82.335938 26.25-26.25 67.824218-27.394531 92.671874-2.546875 21.980469 21.976563 23.609376 57.035156 5.527344 83.003906zm0 0"/><path d="m171.824219 207.15625-.242188.242188c-3.902343 3.910156-3.894531 10.242187.011719 14.140624 1.953125 1.949219 4.511719 2.921876 7.066406 2.921876 2.5625 0 5.125-.976563 7.078125-2.933594l.242188-.242188c3.898437-3.910156 3.894531-10.242187-.015625-14.140625-3.910156-3.902343-10.242188-3.898437-14.140625.011719zm0 0"/></svg>